<svg xmlns="http://www.w3.org/2000/svg" width="0" height="0">
	<svg id="preferences-icon-chevron-left" viewBox="0 0 240 240">
		<polyline fill="none" stroke="var(--color-1)" stroke-width="32" stroke-linecap="round" stroke-linejoin="round" points="165,28.75 74,119.75 165.75,211"/>
	</svg>

	<svg id="preferences-icon-chevron-right" viewBox="0 0 240 240">
		<polyline fill="none" stroke="var(--color-1)" stroke-width="32" stroke-linecap="round" stroke-linejoin="round" points="74,211.25 165,120.25 74.25,28"/>
	</svg>

	<svg id="preferences-icon-show-all" viewBox="0 0 240 240">
		<rect fill="var(--color-1)" y="40" width="40" height="40"/>
		<rect fill="var(--color-1)" x="60" y="40" width="40" height="40"/>
		<rect fill="var(--color-1)" x="120" y="40" width="40" height="40"/>
		<rect fill="var(--color-1)" x="180" y="40" width="40" height="40"/>
		<rect fill="var(--color-1)" y="100" width="40" height="40"/>
		<rect fill="var(--color-1)" x="60" y="100" width="40" height="40"/>
		<rect fill="var(--color-1)" x="120" y="100" width="40" height="40"/>
		<rect fill="var(--color-1)" x="180" y="100" width="40" height="40"/>
		<rect fill="var(--color-1)" y="160" width="40" height="40"/>
		<rect fill="var(--color-1)" x="60" y="160" width="40" height="40"/>
		<rect fill="var(--color-1)" x="120" y="160" width="40" height="40"/>
		<rect fill="var(--color-1)" x="180" y="160" width="40" height="40"/>
	</svg>

	<svg id="defiant-cloud-storage" viewBox="0 0 500 500">
		<style type="text/css">
			.st0{fill:url(#SVGID_1_);}
			.st1{fill:url(#SVGID_2_);}
			.st2{fill:url(#SVGID_3_);}
			.st3{fill:url(#SVGID_4_);}
			.st4{fill:url(#SVGID_5_);}
			.st5{fill:url(#SVGID_6_);}
			.st6{fill:url(#SVGID_7_);}
			.st7{fill:url(#SVGID_8_);}
			.st8{fill:url(#SVGID_9_);}
			.st9{fill:url(#SVGID_10_);}
		</style>
		<filter x="-5.4%" y="-3.1%" width="110.8%" height="112.5%" filterUnits="objectBoundingBox" id="appstore-filter-5">
		    <feOffset dx="0" dy="5" in="SourceAlpha" result="shadowOffsetOuter1"></feOffset>
		    <feGaussianBlur stdDeviation="5" in="shadowOffsetOuter1" result="shadowBlurOuter1"></feGaussianBlur>
		    <feColorMatrix values="0 0 0 0 0   0 0 0 0 0   0 0 0 0 0  0 0 0 0.203945879 0" type="matrix" in="shadowBlurOuter1" result="shadowMatrixOuter1"></feColorMatrix>
		    <feMerge>
		        <feMergeNode in="shadowMatrixOuter1"></feMergeNode>
		        <feMergeNode in="SourceGraphic"></feMergeNode>
		    </feMerge>
		</filter>
		<linearGradient id="SVGID_1_" gradientUnits="userSpaceOnUse" x1="40.0844" y1="245.3474" x2="460.836" y2="245.3474">
			<stop  offset="0" style="stop-color:#B5B7B7"/>
			<stop  offset="1" style="stop-color:#A2A5A6"/>
		</linearGradient>
		<path class="st0" filter="url(#appstore-filter-5)" d="M460.8,388.8c0-0.2,0.1-0.5,0.1-0.7c0-0.5,0-1-0.1-1.5L425.8,35.6c-0.7-9-7.7-15-16-15H90
			c-8.3,0-14.9,5.6-16,15L40.1,386.7c0,0.5-0.1,1-0.1,1.5c0,0.2,0,0.5,0.1,0.7h-0.1c0,0.5,5.5,65.5,5.5,66c0.4,7.9,7.9,15.2,16,15.2
			h376.8c8,0,15.6-7.3,16-15.2C454.4,454.4,460.9,389.3,460.8,388.8L460.8,388.8z"/>
		<linearGradient id="SVGID_2_" gradientUnits="userSpaceOnUse" x1="40.0843" y1="429.4662" x2="460.836" y2="429.4662">
			<stop  offset="0" style="stop-color:#B5B7B7"/>
			<stop  offset="4.065678e-02" style="stop-color:#A1A7A8"/>
			<stop  offset="0.1773" style="stop-color:#D7DFE2"/>
			<stop  offset="0.4362" style="stop-color:#C6CACB"/>
			<stop  offset="0.6479" style="stop-color:#DDE3E6"/>
			<stop  offset="0.9623" style="stop-color:#A5ACAF"/>
			<stop  offset="1" style="stop-color:#8F9597"/>
		</linearGradient>
		<path class="st1" d="M40.1,388.8c0,0.5,5.5,65.5,5.5,66c0.4,7.9,7.9,15.2,16,15.2h376.8c8,0,15.6-7.3,16-15.2c0-0.5,6.5-65.5,6.5-66
			"/>
		<linearGradient id="SVGID_3_" gradientUnits="userSpaceOnUse" x1="446.3784" y1="467.5243" x2="446.3784" y2="397.0883">
			<stop  offset="0" style="stop-color:#C5C9CB"/>
			<stop  offset="1" style="stop-color:#9FA6A9"/>
		</linearGradient>
		<path class="st2" d="M454.7,397.1c-0.3,15.2-3.1,45.9-4,53.1c-1.1,8.8-4.1,13.8-12.7,17.3c7.8-7.4,8.3-16.4,8.8-22.7s2-42.9,2-42.9
			L454.7,397.1z"/>
		<linearGradient id="SVGID_4_" gradientUnits="userSpaceOnUse" x1="53.356" y1="467.5243" x2="53.356" y2="397.0883">
			<stop  offset="0" style="stop-color:#C5C9CB"/>
			<stop  offset="1" style="stop-color:#B8BDC0;stop-opacity:0.3"/>
		</linearGradient>
		<path class="st3" d="M45,397.1c0.3,15.2,3.1,45.9,4,53.1c1.1,8.8,4.1,13.8,12.7,17.3c-7.8-7.4-8.3-16.4-8.8-22.7s-2-42.9-2-42.9
			L45,397.1z"/>
		<linearGradient id="SVGID_5_" gradientUnits="userSpaceOnUse" x1="40.0849" y1="212.4928" x2="460.8358" y2="212.4928">
			<stop  offset="0" style="stop-color:#DBE7EA"/>
			<stop  offset="0.5044" style="stop-color:#D2D9DC"/>
			<stop  offset="1" style="stop-color:#E6EEF0"/>
		</linearGradient>
		<path class="st4" d="M409.9,20.6H90c-8.3,0-14.9,5.6-16,15L40.1,386.7c0,0.5-0.1,1-0.1,1.5c0.4,7.9,7.9,16.2,16,16.2h388.8
			c8,0,15.6-8.3,16-16.2c0-0.5,0-1-0.1-1.5L425.8,35.6C425.2,26.5,418.1,20.6,409.9,20.6z"/>
		<linearGradient id="SVGID_6_" gradientUnits="userSpaceOnUse" x1="250.4603" y1="20.4291" x2="250.4603" y2="399.5565">
			<stop  offset="0" style="stop-color:#C8C8C8"/>
			<stop  offset="1" style="stop-color:#A1A2A2"/>
		</linearGradient>
		<path class="st5" d="M409.5,20.4H90.4c-8.1,0-14.7,5.5-15.7,14.8L43.2,382.1c0,0.5-0.1,1-0.1,1.4c0.4,7.8,7.8,16,15.7,16H442
			c7.9,0,15.3-8.2,15.7-16c0-0.5,0-1-0.1-1.5L425.3,35.2C424.6,26.3,417.7,20.4,409.5,20.4z"/>
		<linearGradient id="SVGID_7_" gradientUnits="userSpaceOnUse" x1="250.0054" y1="29.2212" x2="250.0054" y2="325.7788">
			<stop  offset="0" style="stop-color:#FFC320"/>
			<stop  offset="1" style="stop-color:#EC9B00"/>
		</linearGradient>
		<path class="st6" d="M403.4,29.2H95.6c-7.9,0-12.1,4.3-13.2,13.2L58.1,301c0,0.5-0.9,9.8-0.9,10.3c-0.6,9,7.5,14.5,15.2,14.5h355.3
			c9.1,0,15.8-7,15.2-14.5c0-0.5-0.2-2.9-0.2-3.4l-26-265.5C415.9,33.9,411.3,29.2,403.4,29.2z"/>
		<linearGradient id="SVGID_8_" gradientUnits="userSpaceOnUse" x1="367.6317" y1="439.8822" x2="389.0871" y2="439.8822">
			<stop  offset="0" style="stop-color:#DBE7EA"/>
			<stop  offset="0.5044" style="stop-color:#D2D9DC"/>
			<stop  offset="1" style="stop-color:#E6EEF0"/>
		</linearGradient>
		<ellipse class="st7" cx="378.4" cy="439.9" rx="10.7" ry="8.6"/>
		<radialGradient id="SVGID_9_" cx="378.3594" cy="438.8822" r="9.3461" gradientUnits="userSpaceOnUse">
			<stop  offset="4.082876e-04" style="stop-color:#879098"/>
			<stop  offset="0.5025" style="stop-color:#358936"/>
			<stop  offset="1" style="stop-color:#838B91"/>
		</radialGradient>
		<ellipse class="st8" cx="378.4" cy="438.9" rx="10.3" ry="8.3"/>
		<radialGradient id="SVGID_10_" cx="378.3594" cy="437.4143" r="6.5942" fx="378.378" fy="439.1024" gradientUnits="userSpaceOnUse">
			<stop  offset="4.082876e-04" style="stop-color:#DFFFDC"/>
			<stop  offset="0.4827" style="stop-color:#8CFA80"/>
			<stop  offset="0.9197" style="stop-color:#4DCB40"/>
			<stop  offset="1" style="stop-color:#248920"/>
		</radialGradient>
		<path class="st9" d="M385.1,437.1c0,3.7-3,6.8-6.8,6.8s-6.8-3-6.8-6.8s3-6.1,6.8-6.1S385.1,433.3,385.1,437.1z"/>
	</svg>

</svg>
