<svg xmlns="http://www.w3.org/2000/svg" width="0" height="0">
	
	<svg id="defiant-cloud-storage" viewBox="0 0 55 55">
		<style type="text/css">
			.st0{fill:url(#SVGID_1_);}
			.st1{fill:url(#SVGID_2_);}
			.st2{fill:url(#SVGID_3_);}
			.st3{fill:url(#SVGID_4_);}
			.st4{fill:url(#SVGID_5_);}
			.st5{fill:url(#SVGID_6_);}
			.st6{fill:url(#SVGID_7_);}
			.st7{fill:url(#SVGID_8_);}
			.st8{fill:url(#SVGID_9_);}
			.st9{fill:url(#SVGID_10_);}
			.st10{fill:url(#SVGID_11_);}
		</style>
		<linearGradient id="SVGID_1_" gradientUnits="userSpaceOnUse" x1="2.9248" y1="403.4942" x2="52.0752" y2="403.4942" gradientTransform="matrix(1 0 0 -1 0 431)">
			<stop  offset="0" style="stop-color:#B5B7B7"/>
			<stop  offset="1" style="stop-color:#A2A5A6"/>
		</linearGradient>
		<linearGradient id="SVGID_2_" gradientUnits="userSpaceOnUse" x1="2.9248" y1="383.6187" x2="52.0752" y2="383.6187" gradientTransform="matrix(1 0 0 -1 0 431)">
			<stop  offset="0" style="stop-color:#B5B7B7"/>
			<stop  offset="4.065678e-02" style="stop-color:#A1A7A8"/>
			<stop  offset="0.1773" style="stop-color:#D7DFE2"/>
			<stop  offset="0.4362" style="stop-color:#C6CACB"/>
			<stop  offset="0.6479" style="stop-color:#DDE3E6"/>
			<stop  offset="0.9623" style="stop-color:#A5ACAF"/>
			<stop  offset="1" style="stop-color:#8F9597"/>
		</linearGradient>
		<linearGradient id="SVGID_3_" gradientUnits="userSpaceOnUse" x1="50.4953" y1="379.2547" x2="50.4953" y2="387.3346" gradientTransform="matrix(1 0 0 -1 0 431)">
			<stop  offset="0" style="stop-color:#C5C9CB"/>
			<stop  offset="1" style="stop-color:#9FA6A9"/>
		</linearGradient>
		<linearGradient id="SVGID_4_" gradientUnits="userSpaceOnUse" x1="4.3426" y1="379.2547" x2="4.3426" y2="387.3346" gradientTransform="matrix(1 0 0 -1 0 431)">
			<stop  offset="0" style="stop-color:#C5C9CB"/>
			<stop  offset="1" style="stop-color:#B8BDC0;stop-opacity:0.3"/>
		</linearGradient>
		<linearGradient id="SVGID_5_" gradientUnits="userSpaceOnUse" x1="2.9248" y1="407.2563" x2="52.0636" y2="407.2563" gradientTransform="matrix(1 0 0 -1 0 431)">
			<stop  offset="0" style="stop-color:#DBE7EA"/>
			<stop  offset="0.5044" style="stop-color:#D2D9DC"/>
			<stop  offset="1" style="stop-color:#E6EEF0"/>
		</linearGradient>
		<linearGradient id="SVGID_6_" gradientUnits="userSpaceOnUse" x1="27.4942" y1="428.0463" x2="27.4942" y2="387.0567" gradientTransform="matrix(1 0 0 -1 0 431)">
			<stop  offset="0" style="stop-color:#C8C8C8"/>
			<stop  offset="1" style="stop-color:#A1A2A2"/>
		</linearGradient>
		<linearGradient id="SVGID_7_" gradientUnits="userSpaceOnUse" x1="27.4427" y1="427.1433" x2="27.4427" y2="395.3565" gradientTransform="matrix(1 0 0 -1 0 431)">
			<stop  offset="0" style="stop-color:#FFC320"/>
			<stop  offset="1" style="stop-color:#FF9900"/>
		</linearGradient>
		<linearGradient id="SVGID_8_" gradientUnits="userSpaceOnUse" x1="41.2743" y1="382.4323" x2="43.7977" y2="382.4323" gradientTransform="matrix(1 0 0 -1 0 431)">
			<stop  offset="0" style="stop-color:#DBE7EA"/>
			<stop  offset="0.5044" style="stop-color:#D2D9DC"/>
			<stop  offset="1" style="stop-color:#E6EEF0"/>
		</linearGradient>
		<radialGradient id="SVGID_9_" cx="42.5339" cy="389.7674" r="1.0972" gradientTransform="matrix(1 0 0 -0.9815 0 431.0008)" gradientUnits="userSpaceOnUse">
			<stop  offset="4.082876e-04" style="stop-color:#879098"/>
			<stop  offset="0.5025" style="stop-color:#358936"/>
			<stop  offset="1" style="stop-color:#838B91"/>
		</radialGradient>
		<radialGradient id="SVGID_10_" cx="42.5302" cy="389.9397" r="0.7736" fx="42.5324" fy="390.1377" gradientTransform="matrix(1 0 0 -0.9815 0 431.0008)" gradientUnits="userSpaceOnUse">
			<stop  offset="4.082876e-04" style="stop-color:#DFFFDC"/>
			<stop  offset="0.4827" style="stop-color:#8CFA80"/>
			<stop  offset="0.9197" style="stop-color:#4DCB40"/>
			<stop  offset="1" style="stop-color:#248920"/>
		</radialGradient>
		<linearGradient id="SVGID_11_" gradientUnits="userSpaceOnUse" x1="27.6066" y1="-324.1932" x2="27.6066" y2="-341.2905" gradientTransform="matrix(1 0 0 1 0 352)">
			<stop  offset="0" style="stop-color:#E58F10"/>
			<stop  offset="1" style="stop-color:#D78700"/>
		</linearGradient>
		<path class="st0" d="M52.1,42.7C52.1,42.7,52.1,42.7,52.1,42.7c0-0.1,0-0.2,0-0.3l-5-38C46.9,3.6,46.1,3,45.2,3H9.7 C8.7,3,8,3.5,7.8,4.5l-4.9,38c0,0.1,0,0.1,0,0.2c0,0,0,0.1,0,0.1h0c0,0.1,0.4,7.5,0.4,7.5c0,0.9,0.9,1.8,1.8,1.8h44.5 c0.9,0,1.8-0.8,1.8-1.8C51.5,50.2,52.1,42.8,52.1,42.7L52.1,42.7z"/>
		<path class="st1" d="M2.9,42.7c0,0.1,0.4,7.5,0.4,7.5c0,0.9,0.9,1.8,1.8,1.8h44.5c0.9,0,1.8-0.8,1.8-1.8c0-0.1,0.5-7.5,0.5-7.5"/>
		<path class="st2" d="M51.4,43.7c0,1.7-0.2,5.2-0.3,6.1c-0.1,1-0.4,1.6-1.4,2c0.9-0.9,0.9-1.9,1-2.6c0-0.7,0.1-4.9,0.1-4.9L51.4,43.7 z"/>
		<path class="st3" d="M3.5,43.7c0,1.7,0.2,5.2,0.3,6.1c0.1,1,0.4,1.6,1.4,2c-0.9-0.9-0.9-1.9-1-2.6c0-0.7-0.1-4.9-0.1-4.9L3.5,43.7z" />
		<path class="st4" d="M45.2,3H9.7C8.7,3,8,3.6,7.8,4.5l-4.9,38c0,0.1,0,0.1,0,0.2c0,0.9,0.9,1.8,1.8,1.8h45.5c0.9,0,1.8-0.9,1.8-1.8 c0-0.1,0-0.1,0-0.2l-5-38C46.9,3.6,46.1,3,45.2,3z"/>
		<path class="st5" d="M45.2,3H9.7C8.8,3,8.1,3.5,7.9,4.5L3.3,42c0,0.1,0,0.1,0,0.2c0,0.9,0.9,1.8,1.8,1.8h44.8c0.9,0,1.8-0.9,1.8-1.8 c0-0.1,0-0.1,0-0.2L47,4.5C46.9,3.6,46.1,3,45.2,3z"/>
		<path class="st6" d="M44.5,3.9H10.3c-0.9,0-1.4,0.4-1.5,1.4L5.3,32.9c0,0.1-0.1,1.1-0.1,1.1c-0.1,1,0.8,1.6,1.7,1.6H48 c1.1,0,1.8-0.8,1.7-1.6c0-0.1,0-0.3,0-0.4L46,5.2C45.9,4.3,45.4,3.9,44.5,3.9z"/>
		<path class="st7" d="M42.5,47.6c0.7,0,1.3,0.4,1.3,1c0,0.5-0.5,1-1.2,1s-1.3-0.4-1.3-1C41.3,48,41.8,47.6,42.5,47.6z"/>
		<path class="st8" d="M42.5,47.5c0.7,0,1.2,0.4,1.2,0.9c0,0.5-0.5,0.9-1.2,0.9c-0.7,0-1.2-0.4-1.2-0.9C41.3,47.9,41.9,47.5,42.5,47.5 z"/>
		<path class="st9" d="M43.3,48.2c0,0.4-0.3,0.8-0.8,0.8c-0.5,0-0.8-0.3-0.8-0.8c0-0.4,0.3-0.7,0.8-0.7S43.3,47.8,43.3,48.2z"/>
		<path class="st10" d="M41.1,22.1c0.7,3-1.4,5.7-4.7,5.7H19.5c-3.8,0-6.3-3.1-5.5-6.6c0.5-2.3,2.3-4.1,4.4-4.9c0-0.2,0-0.3,0.1-0.5 c0.5-2.9,3.5-5.1,6.7-5.1c2.5,0,4.6,1.2,5.7,3c0.5-0.4,1.2-0.6,2-0.6c1.7,0,3.3,1.2,3.5,2.7c0.1,0.6,0,1.1-0.3,1.6 C38.5,17.8,40.6,19.7,41.1,22.1z"/>
	</svg>

	<svg id="icon-dropbox" viewBox="0 0 55 55">
		<style type="text/css">
			.st0{fill:#007ee5;}
		</style>
		<path class="st0" d="M14.1,22.5l13.4,8.3l-9.3,7.7L5,29.8L14.1,22.5z M40.8,37.5v2.9l-13.3,7.9v0l0,0l0,0v0l-13.2-7.9v-2.9l4,2.6
			l9.3-7.7v-0.1l0,0l0,0v0.1l9.3,7.7L40.8,37.5z M18.2,6.6l9.3,7.7l-13.4,8.2L5,15.2L18.2,6.6z M40.9,22.5l9.2,7.3l-13.2,8.6l-9.3-7.7
			L40.9,22.5z M36.8,6.6L50,15.2l-9.2,7.3l-13.4-8.2L36.8,6.6z"/>
	</svg>

	<svg id="icon-one-drive" viewBox="0 0 55 55">
		<style type="text/css">
			.st0{fill:#1665c0;}
		</style>
		<path class="st0" d="M19.6,42.8c-2.7-0.8-4.2-3.3-4.2-7.1c0-1.2,0.1-1.8,0.3-2.5c0.6-1.9,2.3-3.3,4.5-3.8c1.1-0.3,1.4-0.5,1.4-1.2
			c0-0.2,0.1-0.8,0.3-1.3c0.7-2.4,2-4.5,3.5-5.3c1.5-0.9,2.2-1.1,4-1.1c2.6,0,3.8,0.7,5.6,2.9l1,1.2l0.9-0.4c4.2-1.7,8.5,1.2,8.8,6.1
			l0.1,1.3l0.8,0.3c2.4,1,3.5,3.1,3.3,6.2c-0.1,2-0.9,3.6-2.2,4.4L47.1,43l-13.4,0C23.4,43,20.2,43,19.6,42.8L19.6,42.8z"/>
		<path class="st0" d="M9.6,40.7c-1.6-0.4-3.3-2.1-4-3.9c-0.4-1.1-0.5-1.2-0.5-3.1c0-1.8,0-2.1,0.4-3c0.7-1.9,2.2-3.2,4-3.7
			c0.4-0.1,0.7-0.3,0.8-0.4c0.1-0.1,0.1-0.7,0.1-1.3c0.1-3.7,2.2-7,5.2-8.1c1.6-0.6,3.6-0.4,5.3,0.4c0.5,0.3,0.5,0.3,1.6-1.5
			c0.7-1,2.1-2.4,3.2-3c1.2-0.7,2.5-1,4-1c4.2,0,7.9,3.1,9.2,7.8c0.4,1.5,0.4,1.9-0.1,1.9c-0.2,0-0.9,0.1-1.4,0.3l-1,0.3l-0.9-1.1
			c-2.6-3-6.8-3.7-10.4-1.6c-1.4,0.8-2.6,2-3.5,3.6c-0.6,1.1-1.4,3.2-1.4,3.7c0,0.4-0.2,0.5-1.3,1c-3.3,1.3-5.3,4.2-5.3,8
			c0,1.4,0.3,3.1,0.7,4c0.2,0.4,0.2,0.7,0.2,0.8C14.3,40.9,10.2,40.8,9.6,40.7L9.6,40.7z"/>
	</svg>

	<svg id="icon-google-drive" viewBox="0 0 55 55">
		<style type="text/css">
			.st0{fill:#fcc83d;}
			.st1{fill:#19994e;}
			.st2{fill:#336cf6;}
		</style>
		<path class="st0" d="M48.8,30.3L35.8,7.7H19.5l13.1,22.6H48.8z"/>
		<path class="st1" d="M17.8,10.6L5,32.8l8.2,14.1L26,24.7L17.8,10.6z"/>
		<path class="st2" d="M24.4,33.2l-8.1,14.1h25.6L50,33.2H24.4z"/>
	</svg>

	<svg id="icon-pcloud" viewBox="0 0 55 55">
		<style type="text/css">
			.st0{fill-rule:evenodd;clip-rule:evenodd;fill:#1BBED0;}
		</style>
		<path class="st0" d="M27.5,16.7c-5.8,0-10.6,4.7-10.6,10.6s4.7,10.6,10.6,10.6s10.6-4.7,10.6-10.6C38.1,21.4,33.3,16.7,27.5,16.7
			 M29.1,30h-3.4v2.8c0,0.8-0.6,1.4-1.4,1.4c-0.8,0-1.4-0.6-1.4-1.4V22.7c0-0.8,0.6-1.4,1.4-1.4h4.8c2.4,0,4.4,2,4.4,4.4
			S31.5,30,29.1,30"/>
		<path class="st0" d="M29.3,24.1h-3.7v3.2h3.7c0.8-0.1,1.4-0.8,1.4-1.6C30.7,24.9,30.1,24.2,29.3,24.1"/>
		<path class="st0" d="M46.5,28.5c-0.4,2-1.5,3.1-3.2,3.9c1.7-1.1,2.8-3,2.8-5.1c0-3.1-2.2-5.6-5.2-6.1c0.8,1.6,0.9,2.8,0.7,4.3
			c-0.9-7-6.9-12.4-14.1-12.4c-7.9,0-14.2,6.4-14.2,14.2c0,1.3,0.2,2.6,0.5,3.8c-0.6-1.6-1-3.3-1-5.2c0-1.7,0.3-3.3,0.9-4.9
			C8.8,21.9,5,26.2,5,31.4C5,37.1,9.5,41.7,15.1,42h27.7c3.8-0.2,7.1-3.4,7.1-7.3C50,32,48.6,29.7,46.5,28.5 M27.5,39.2
			c-6.6,0-11.9-5.3-11.9-11.9c0-6.6,5.3-11.9,11.9-11.9s11.9,5.3,11.9,11.9S34.1,39.2,27.5,39.2"/>
	</svg>

	<svg id="icon-box" viewBox="0 0 55 55">
		<style type="text/css">
			.st0{fill-rule:evenodd;clip-rule:evenodd;fill:#0061D5;}
		</style>
		<path class="st0" d="M6.7,15.6c0.9,0,1.7,0.7,1.7,1.6v7.1c1.4-1.1,3.1-1.7,5-1.7c3.2,0,6,1.8,7.4,4.5c1.4-2.7,4.2-4.5,7.4-4.5
			c4.6,0,8.4,3.8,8.4,8.4s-3.8,8.4-8.4,8.4c-3.2,0-6-1.8-7.4-4.5c-1.4,2.6-4.2,4.5-7.4,4.5c-4.6,0-8.3-3.7-8.4-8.2l0,0V17.2
			C5,16.3,5.8,15.6,6.7,15.6z M46.7,23.4c0.6-0.7,1.7-0.9,2.5-0.3c0.8,0.5,1,1.6,0.4,2.3L45.1,31l4.6,5.6c0.6,0.7,0.4,1.8-0.4,2.3
			c-0.8,0.5-1.9,0.4-2.5-0.3l-3.9-4.8l-3.9,4.8c-0.6,0.7-1.7,0.9-2.5,0.3c-0.8-0.5-1-1.6-0.4-2.3l0,0l4.6-5.6L36,25.4l0,0
			c-0.6-0.7-0.4-1.8,0.4-2.3c0.8-0.5,1.9-0.4,2.5,0.3l0,0l3.9,4.8L46.7,23.4L46.7,23.4z M28.2,26c-2.8,0-5,2.3-5,5c0,2.8,2.3,5,5,5
			s5-2.3,5-5C33.3,28.2,31,26,28.2,26z M13.4,26c-2.8,0-5,2.3-5,5s2.3,5,5,5s5-2.3,5-5S16.2,26,13.4,26z"/>
	</svg>

</svg>
