<svg xmlns="http://www.w3.org/2000/svg" width="0" height="0">
	
	<svg id="defiant-logo" viewBox="0 0 113 113">
		<style type="text/css">
			.st0{fill:url(#SVGID_1_);filter:url(#inset-shadow);}
			.st1{fill:url(#SVGID_2_);filter:url(#inset-shadow);}
			.st2{fill:url(#SVGID_3_);}
		</style>
		<linearGradient id="SVGID_1_" gradientUnits="userSpaceOnUse" x1="8.318068e-02" y1="113.0476" x2="8.318068e-02" y2="112.8191" gradientTransform="matrix(478.8025 0 0 -460.1 16.5987 52017.1953)">
			<stop offset="0" style="stop-color:#ddd"/>
			<stop offset="1" style="stop-color:#bbb"/>
		</linearGradient>
		<linearGradient id="SVGID_2_" gradientUnits="userSpaceOnUse" x1="-0.3963" y1="113.4716" x2="-0.3963" y2="113.2432" gradientTransform="matrix(222.7011 0 0 -213.4879 144.686 24252.1445)">
			<stop offset="0" style="stop-color:#d5d5d5"/>
			<stop offset="1" style="stop-color:#c5c5c5"/>
		</linearGradient>
		<linearGradient id="SVGID_3_" gradientUnits="userSpaceOnUse" x1="5.634131e-02" y1="113.1118" x2="5.634131e-02" y2="112.8834" gradientTransform="matrix(449.8073 0 0 -413.8 31.0792 46816.8984)">
			<stop offset="0" style="stop-color:#f2f2f2"/>
			<stop offset="1" style="stop-color:#e2e2e2"/>
		</linearGradient>
		<filter id="inset-shadow">
			<feComponentTransfer in="SourceAlpha">
				<feFuncA type="table" tableValues="1 0"/>
			</feComponentTransfer>
			<feGaussianBlur stdDeviation="0"/>
			<feOffset dx="0" dy="1" result="offsetblur"/>
			<feFlood flood-color="#9b9b9b" result="color"/>
			<feComposite in2="offsetblur" operator="in"/>
			<feComposite in2="SourceAlpha" operator="in"/>
			<feMerge>
				<feMergeNode in="SourceGraphic"/>
				<feMergeNode />
			</feMerge>
		</filter>
		<path class="st0" d="M109.7,15.9c-2.4-4.2-9-7.2-20.1-9.3C80.6,4.9,68.9,4,56.7,4C44.5,4,32.7,4.9,23.5,6.6c-5,0.9-9.2,2.1-12.4,3.4 c-4,1.6-6.6,3.5-7.9,5.9c-1.4,2.4-1.7,5.6-1.1,10c0.5,3.5,1.6,7.8,3.4,12.7c3.2,9,8.4,19.9,14.6,30.7c6.1,10.5,12.7,20.1,18.6,27 c3.2,3.8,6.3,6.8,9,8.9c3.3,2.6,6.3,3.8,8.9,3.8c4.8,0,10.6-4.1,17.9-12.6c5.8-6.8,12.4-16.3,18.4-26.8c6.3-10.9,11.5-21.9,14.7-31 c1.8-5,2.9-9.3,3.4-12.9C111.4,21.6,111.1,18.3,109.7,15.9z M106,32.4c-2.2-1.3-5.5-0.7-6.8,1.5v0C95.1,50.7,78,80.4,65.5,92.3l0,0 c-1.3,2.2-0.2,5.3,2.1,6.6c-4.3,4.3-8.2,6.9-11.2,6.9c-2.9,0-6.9-2.7-11.2-7v0c2.2-1.3,3.4-4.4,2.1-6.6l0,0 c-12.5-12-29.6-41.6-33.7-58.4v0c-1.3-2.2-4.5-2.8-6.8-1.5h0C4.9,25.6,4.4,20.3,6,17.6c1.5-2.6,5.9-4.7,12.1-6.4l0,0.1 c0,2.6,2.1,5.1,4.7,5.1c16.7-4.8,50.9-4.9,67.4,0l0,0c2.6,0,4.7-2.5,4.7-5.1l0.1-0.1c6,1.6,10.3,3.7,11.9,6.4 C108.4,20.3,108,25.7,106,32.4z"/>
		<path class="st1" d="M31.5,32.4c-3.9,6.8,17.2,43.7,24.9,43.7c8,0,28.9-36.9,25-43.7C77.4,25.6,35.3,25.7,31.5,32.4z"/>
		<path class="st2" d="M106.8,17.6c-1.5-2.6-5.8-4.7-11.9-6.4l-0.1,0.1c0,2.6-2.1,5.1-4.7,5.1c-16.6-4.9-50.8-4.8-67.4,0 c-2.6,0-4.7-2.5-4.7-5.1l0-0.1C11.9,12.8,7.5,14.9,6,17.6c-1.6,2.8-1.1,8,0.8,14.6h0c2.2-1.3,5.5-0.7,6.8,1.5v0 c4.1,16.8,21.2,46.4,33.7,58.4c1.3,2.3,0.2,5.3-2.1,6.6v0c4.4,4.4,8.3,7,11.2,7c3,0,6.9-2.6,11.2-6.9c-2.2-1.3-3.3-4.4-2.1-6.6 C78,80.4,95.1,50.7,99.3,33.9v0c1.3-2.2,4.5-2.8,6.8-1.5C108,25.7,108.4,20.3,106.8,17.6z M56.4,76.1c-7.8,0-28.9-36.9-24.9-43.7 c3.8-6.7,46-6.8,49.9,0C85.3,39.2,64.4,76.1,56.4,76.1z"/>
	</svg>

	<svg id="icon-github" viewBox="0 0 55 55">
		<style type="text/css">
			.st0{fill:url(#SVGID_1_);filter:url(#inset-shadow);}
		</style>
		<linearGradient id="SVGID_1_" gradientUnits="userSpaceOnUse" x1="0" y1="0" x2="0" y2="55">
			<stop offset="0" style="stop-color:#e0e0e0"/>
			<stop offset="1" style="stop-color:#bbb"/>
		</linearGradient>
		<filter id="inset-shadow">
			<feComponentTransfer in="SourceAlpha">
				<feFuncA type="table" tableValues="1 0"/>
			</feComponentTransfer>
			<feGaussianBlur stdDeviation="0"/>
			<feOffset dx="0" dy="1" result="offsetblur"/>
			<feFlood flood-color="#aaa" result="color"/>
			<feComposite in2="offsetblur" operator="in"/>
			<feComposite in2="SourceAlpha" operator="in"/>
			<feMerge>
				<feMergeNode in="SourceGraphic"/>
				<feMergeNode />
			</feMerge>
		</filter>
		<path class="st0" d="M51.9,25.2L29.8,3.1c-1.3-1.3-3.3-1.3-4.6,0l-4.6,4.6l5.8,5.8c1.4-0.5,2.9-0.2,4,0.9c1.1,1.1,1.4,2.7,0.9,4l5.6,5.6
			c1.4-0.5,2.9-0.2,4,0.9c1.5,1.5,1.5,4,0,5.5c-1.5,1.5-4,1.5-5.5,0c-1.1-1.1-1.4-2.8-0.8-4.2L29.3,21v13.8c0.4,0.2,0.7,0.4,1,0.7
			c1.5,1.5,1.5,4,0,5.5c-1.5,1.5-4,1.5-5.5,0c-1.5-1.5-1.5-4,0-5.5c0.4-0.4,0.8-0.7,1.3-0.8V20.8c-0.5-0.2-0.9-0.5-1.3-0.8
			c-1.2-1.2-1.4-2.8-0.8-4.3l-5.8-5.8L3.1,25.1c-1.3,1.3-1.3,3.4,0,4.6l22.2,22.2c1.3,1.3,3.3,1.3,4.6,0l22.1-22.1
			C53.2,28.6,53.2,26.5,51.9,25.2"/>
	</svg>

	<svg id="icon-dropbox" viewBox="0 0 55 55">
		<style type="text/css">
			.st0{fill:#007ee5;}
		</style>
		<path class="st0" d="M14.1,22.5l13.4,8.3l-9.3,7.7L5,29.8L14.1,22.5z M40.8,37.5v2.9l-13.3,7.9v0l0,0l0,0v0l-13.2-7.9v-2.9l4,2.6
			l9.3-7.7v-0.1l0,0l0,0v0.1l9.3,7.7L40.8,37.5z M18.2,6.6l9.3,7.7l-13.4,8.2L5,15.2L18.2,6.6z M40.9,22.5l9.2,7.3l-13.2,8.6l-9.3-7.7
			L40.9,22.5z M36.8,6.6L50,15.2l-9.2,7.3l-13.4-8.2L36.8,6.6z"/>
	</svg>

	<svg id="icon-one-drive" viewBox="0 0 55 55">
		<style type="text/css">
			.st0{fill:#1665c0;}
		</style>
		<path class="st0" d="M19.6,42.8c-2.7-0.8-4.2-3.3-4.2-7.1c0-1.2,0.1-1.8,0.3-2.5c0.6-1.9,2.3-3.3,4.5-3.8c1.1-0.3,1.4-0.5,1.4-1.2
			c0-0.2,0.1-0.8,0.3-1.3c0.7-2.4,2-4.5,3.5-5.3c1.5-0.9,2.2-1.1,4-1.1c2.6,0,3.8,0.7,5.6,2.9l1,1.2l0.9-0.4c4.2-1.7,8.5,1.2,8.8,6.1
			l0.1,1.3l0.8,0.3c2.4,1,3.5,3.1,3.3,6.2c-0.1,2-0.9,3.6-2.2,4.4L47.1,43l-13.4,0C23.4,43,20.2,43,19.6,42.8L19.6,42.8z"/>
		<path class="st0" d="M9.6,40.7c-1.6-0.4-3.3-2.1-4-3.9c-0.4-1.1-0.5-1.2-0.5-3.1c0-1.8,0-2.1,0.4-3c0.7-1.9,2.2-3.2,4-3.7
			c0.4-0.1,0.7-0.3,0.8-0.4c0.1-0.1,0.1-0.7,0.1-1.3c0.1-3.7,2.2-7,5.2-8.1c1.6-0.6,3.6-0.4,5.3,0.4c0.5,0.3,0.5,0.3,1.6-1.5
			c0.7-1,2.1-2.4,3.2-3c1.2-0.7,2.5-1,4-1c4.2,0,7.9,3.1,9.2,7.8c0.4,1.5,0.4,1.9-0.1,1.9c-0.2,0-0.9,0.1-1.4,0.3l-1,0.3l-0.9-1.1
			c-2.6-3-6.8-3.7-10.4-1.6c-1.4,0.8-2.6,2-3.5,3.6c-0.6,1.1-1.4,3.2-1.4,3.7c0,0.4-0.2,0.5-1.3,1c-3.3,1.3-5.3,4.2-5.3,8
			c0,1.4,0.3,3.1,0.7,4c0.2,0.4,0.2,0.7,0.2,0.8C14.3,40.9,10.2,40.8,9.6,40.7L9.6,40.7z"/>
	</svg>

	<svg id="icon-google-drive" viewBox="0 0 55 55">
		<style type="text/css">
			.st0{fill:#fcc83d;}
			.st1{fill:#19994e;}
			.st2{fill:#336cf6;}
		</style>
		<path class="st0" d="M48.8,30.3L35.8,7.7H19.5l13.1,22.6H48.8z"/>
		<path class="st1" d="M17.8,10.6L5,32.8l8.2,14.1L26,24.7L17.8,10.6z"/>
		<path class="st2" d="M24.4,33.2l-8.1,14.1h25.6L50,33.2H24.4z"/>
	</svg>

	<svg id="icon-pcloud" viewBox="0 0 55 55">
		<style type="text/css">
			.st0{fill-rule:evenodd;clip-rule:evenodd;fill:#1BBED0;}
		</style>
		<path class="st0" d="M27.5,16.7c-5.8,0-10.6,4.7-10.6,10.6s4.7,10.6,10.6,10.6s10.6-4.7,10.6-10.6C38.1,21.4,33.3,16.7,27.5,16.7
			 M29.1,30h-3.4v2.8c0,0.8-0.6,1.4-1.4,1.4c-0.8,0-1.4-0.6-1.4-1.4V22.7c0-0.8,0.6-1.4,1.4-1.4h4.8c2.4,0,4.4,2,4.4,4.4
			S31.5,30,29.1,30"/>
		<path class="st0" d="M29.3,24.1h-3.7v3.2h3.7c0.8-0.1,1.4-0.8,1.4-1.6C30.7,24.9,30.1,24.2,29.3,24.1"/>
		<path class="st0" d="M46.5,28.5c-0.4,2-1.5,3.1-3.2,3.9c1.7-1.1,2.8-3,2.8-5.1c0-3.1-2.2-5.6-5.2-6.1c0.8,1.6,0.9,2.8,0.7,4.3
			c-0.9-7-6.9-12.4-14.1-12.4c-7.9,0-14.2,6.4-14.2,14.2c0,1.3,0.2,2.6,0.5,3.8c-0.6-1.6-1-3.3-1-5.2c0-1.7,0.3-3.3,0.9-4.9
			C8.8,21.9,5,26.2,5,31.4C5,37.1,9.5,41.7,15.1,42h27.7c3.8-0.2,7.1-3.4,7.1-7.3C50,32,48.6,29.7,46.5,28.5 M27.5,39.2
			c-6.6,0-11.9-5.3-11.9-11.9c0-6.6,5.3-11.9,11.9-11.9s11.9,5.3,11.9,11.9S34.1,39.2,27.5,39.2"/>
	</svg>

	<svg id="icon-box" viewBox="0 0 55 55">
		<style type="text/css">
			.st0{fill-rule:evenodd;clip-rule:evenodd;fill:#0061D5;}
		</style>
		<path class="st0" d="M6.7,15.6c0.9,0,1.7,0.7,1.7,1.6v7.1c1.4-1.1,3.1-1.7,5-1.7c3.2,0,6,1.8,7.4,4.5c1.4-2.7,4.2-4.5,7.4-4.5
			c4.6,0,8.4,3.8,8.4,8.4s-3.8,8.4-8.4,8.4c-3.2,0-6-1.8-7.4-4.5c-1.4,2.6-4.2,4.5-7.4,4.5c-4.6,0-8.3-3.7-8.4-8.2l0,0V17.2
			C5,16.3,5.8,15.6,6.7,15.6z M46.7,23.4c0.6-0.7,1.7-0.9,2.5-0.3c0.8,0.5,1,1.6,0.4,2.3L45.1,31l4.6,5.6c0.6,0.7,0.4,1.8-0.4,2.3
			c-0.8,0.5-1.9,0.4-2.5-0.3l-3.9-4.8l-3.9,4.8c-0.6,0.7-1.7,0.9-2.5,0.3c-0.8-0.5-1-1.6-0.4-2.3l0,0l4.6-5.6L36,25.4l0,0
			c-0.6-0.7-0.4-1.8,0.4-2.3c0.8-0.5,1.9-0.4,2.5,0.3l0,0l3.9,4.8L46.7,23.4L46.7,23.4z M28.2,26c-2.8,0-5,2.3-5,5c0,2.8,2.3,5,5,5
			s5-2.3,5-5C33.3,28.2,31,26,28.2,26z M13.4,26c-2.8,0-5,2.3-5,5s2.3,5,5,5s5-2.3,5-5S16.2,26,13.4,26z"/>
	</svg>

	<svg id="icon-code" viewBox="0 0 13 13">
		<style type="text/css">
			.st0{fill:#444;}
		</style>
		<path class="st0" d="M7.4,9.5l1.3,1.3L13,6.5L8.7,2.2L7.4,3.5l3,3L7.4,9.5z"/>
		<path class="st0" d="M5.6,3.5L4.3,2.2L0,6.5l4.3,4.3l1.3-1.3l-3-3L5.6,3.5z"/>
	</svg>

	<svg id="icon-star" viewBox="0 0 13 13">
		<style type="text/css">
			.st0{fill:#333;}
		</style>
		<path class="st0" d="M8.9,7.9l2.4-2.3L8,5.1l-1.5-3L5,5.1L1.7,5.6l2.4,2.3l-0.6,3.3l3-1.6l2.9,1.6L8.9,7.9z M13,5.1
			c0,0.1-0.1,0.3-0.2,0.4L10,8.2l0.7,3.9c0,0.1,0,0.1,0,0.2c0,0.2-0.1,0.4-0.3,0.4c-0.1,0-0.2,0-0.3-0.1l-3.5-1.8L3,12.6
			c-0.1,0.1-0.2,0.1-0.3,0.1c-0.2,0-0.3-0.2-0.3-0.4c0-0.1,0-0.1,0-0.2L3,8.2L0.2,5.5C0.1,5.4,0,5.2,0,5.1c0-0.2,0.2-0.3,0.4-0.4
			l3.9-0.6l1.8-3.6c0.1-0.1,0.2-0.3,0.4-0.3s0.3,0.2,0.4,0.3l1.8,3.6l3.9,0.6C12.8,4.8,13,4.9,13,5.1z"/>
	</svg>

	<svg id="icon-issue" viewBox="0 0 13 13">
		<style type="text/css">
			.st0{fill:none;stroke:#333;stroke-width:1;stroke-miterlimit:10;}
			.st1{fill:#333;}
		</style>
		<circle class="st0" cx="6.5" cy="6.5" r="5.7"/>
		<circle class="st1" cx="6.5" cy="6.5" r="1.2"/>
	</svg>

	<svg id="defiant-cloud-storage" viewBox="0 0 44 44">
		<style type="text/css">
			.st0{fill:url(#SVGID_1_);}
			.st1{fill:url(#SVGID_2_);}
			.st2{fill:url(#SVGID_3_);}
			.st3{fill:url(#SVGID_4_);}
			.st4{fill:url(#SVGID_5_);}
			.st5{fill:url(#SVGID_6_);}
			.st6{fill:url(#SVGID_7_);}
			.st7{fill:url(#SVGID_8_);}
			.st8{fill:url(#SVGID_9_);}
			.st9{fill:url(#SVGID_10_);}
			.st10{fill:url(#SVGID_11_);}
		</style>
		<linearGradient id="SVGID_1_" gradientUnits="userSpaceOnUse" x1="3.0349" y1="399.9955" x2="40.9651" y2="399.9955" gradientTransform="matrix(1 0 0 -1 0 422)">
			<stop  offset="0" style="stop-color:#B5B7B7"/>
			<stop  offset="1" style="stop-color:#A2A5A6"/>
		</linearGradient>
		<linearGradient id="SVGID_2_" gradientUnits="userSpaceOnUse" x1="3.0349" y1="384.6573" x2="40.9651" y2="384.6573" gradientTransform="matrix(1 0 0 -1 0 422)">
			<stop  offset="0" style="stop-color:#B5B7B7"/>
			<stop  offset="4.065678e-02" style="stop-color:#A1A7A8"/>
			<stop  offset="0.1773" style="stop-color:#D7DFE2"/>
			<stop  offset="0.4362" style="stop-color:#C6CACB"/>
			<stop  offset="0.6479" style="stop-color:#DDE3E6"/>
			<stop  offset="0.9623" style="stop-color:#A5ACAF"/>
			<stop  offset="1" style="stop-color:#8F9597"/>
		</linearGradient>
		<linearGradient id="SVGID_3_" gradientUnits="userSpaceOnUse" x1="39.7459" y1="381.2895" x2="39.7459" y2="387.5248" gradientTransform="matrix(1 0 0 -1 0 422)">
			<stop  offset="0" style="stop-color:#C5C9CB"/>
			<stop  offset="1" style="stop-color:#9FA6A9"/>
		</linearGradient>
		<linearGradient id="SVGID_4_" gradientUnits="userSpaceOnUse" x1="4.129" y1="381.2895" x2="4.129" y2="387.5248" gradientTransform="matrix(1 0 0 -1 0 422)">
			<stop  offset="0" style="stop-color:#C5C9CB"/>
			<stop  offset="1" style="stop-color:#B8BDC0;stop-opacity:0.3"/>
		</linearGradient>
		<linearGradient id="SVGID_5_" gradientUnits="userSpaceOnUse" x1="3.0349" y1="402.8988" x2="40.9562" y2="402.8988" gradientTransform="matrix(1 0 0 -1 0 422)">
			<stop  offset="0" style="stop-color:#DBE7EA"/>
			<stop  offset="0.5044" style="stop-color:#D2D9DC"/>
			<stop  offset="1" style="stop-color:#E6EEF0"/>
		</linearGradient>
		<linearGradient id="SVGID_6_" gradientUnits="userSpaceOnUse" x1="21.9955" y1="418.9428" x2="21.9955" y2="387.3105" gradientTransform="matrix(1 0 0 -1 0 422)">
			<stop  offset="0" style="stop-color:#C8C8C8"/>
			<stop  offset="1" style="stop-color:#A1A2A2"/>
		</linearGradient>
		<linearGradient id="SVGID_7_" gradientUnits="userSpaceOnUse" x1="21.9558" y1="418.246" x2="21.9558" y2="393.7155" gradientTransform="matrix(1 0 0 -1 0 422)">
			<stop  offset="0" style="stop-color:#FFC320"/>
			<stop  offset="1" style="stop-color:#FF9900"/>
		</linearGradient>
		<linearGradient id="SVGID_8_" gradientUnits="userSpaceOnUse" x1="32.6299" y1="383.7416" x2="34.5772" y2="383.7416" gradientTransform="matrix(1 0 0 -1 0 422)">
			<stop  offset="0" style="stop-color:#DBE7EA"/>
			<stop  offset="0.5044" style="stop-color:#D2D9DC"/>
			<stop  offset="1" style="stop-color:#E6EEF0"/>
		</linearGradient>
		<radialGradient id="SVGID_9_" cx="33.602" cy="392.1282" r="0.8467" gradientTransform="matrix(1 0 0 -0.9815 0 423.0368)" gradientUnits="userSpaceOnUse">
			<stop  offset="4.082876e-04" style="stop-color:#879098"/>
			<stop  offset="0.5025" style="stop-color:#358936"/>
			<stop  offset="1" style="stop-color:#838B91"/>
		</radialGradient>
		<radialGradient id="SVGID_10_" cx="33.5991" cy="392.2612" r="0.597" fx="33.6008" fy="392.414" gradientTransform="matrix(1 0 0 -0.9815 0 423.0368)" gradientUnits="userSpaceOnUse">
			<stop  offset="4.082876e-04" style="stop-color:#DFFFDC"/>
			<stop  offset="0.4827" style="stop-color:#8CFA80"/>
			<stop  offset="0.9197" style="stop-color:#4DCB40"/>
			<stop  offset="1" style="stop-color:#248920"/>
		</radialGradient>
		<linearGradient id="SVGID_11_" gradientUnits="userSpaceOnUse" x1="22.0823" y1="-432.7633" x2="22.0823" y2="-445.9576" gradientTransform="matrix(1 0 0 1 0 455)">
			<stop  offset="0" style="stop-color:#E58F10"/>
			<stop  offset="1" style="stop-color:#D78700"/>
		</linearGradient>
		<path class="st0" d="M41,33.8C41,33.7,41,33.7,41,33.8c0-0.1,0-0.2,0-0.2L37.1,4.3c-0.1-0.7-0.7-1.2-1.4-1.2H8.2 c-0.7,0-1.3,0.4-1.4,1.2L3,33.6c0,0,0,0.1,0,0.1c0,0,0,0,0,0.1h0c0,0,0.3,5.8,0.3,5.8c0,0.7,0.7,1.4,1.4,1.4h34.3 c0.7,0,1.4-0.7,1.4-1.4C40.5,39.5,41,33.8,41,33.8L41,33.8z"/>
		<path class="st1" d="M3,33.8c0,0,0.3,5.8,0.3,5.8c0,0.7,0.7,1.4,1.4,1.4h34.3c0.7,0,1.4-0.7,1.4-1.4c0,0,0.4-5.8,0.4-5.8"/>
		<path class="st2" d="M40.4,34.5c0,1.3-0.2,4-0.2,4.7c-0.1,0.8-0.3,1.2-1.1,1.5c0.7-0.7,0.7-1.5,0.8-2c0-0.6,0.1-3.8,0.1-3.8 L40.4,34.5z"/>
		<path class="st3" d="M3.5,34.5c0,1.3,0.2,4,0.2,4.7C3.8,40,4,40.4,4.8,40.7c-0.7-0.7-0.7-1.5-0.7-2C4,38.1,4,34.9,4,34.9L3.5,34.5z" />
		<path class="st4" d="M35.7,3.1H8.2c-0.7,0-1.3,0.4-1.4,1.2L3,33.6c0,0,0,0.1,0,0.1c0,0.7,0.7,1.4,1.4,1.4h35.1 c0.7,0,1.4-0.7,1.4-1.4c0,0,0-0.1,0-0.1L37.1,4.3C37,3.5,36.4,3.1,35.7,3.1z"/>
		<path class="st5" d="M35.6,3.1H8.3C7.6,3.1,7,3.5,6.9,4.2L3.3,33.2c0,0,0,0.1,0,0.1c0,0.7,0.7,1.4,1.4,1.4h34.6 c0.7,0,1.4-0.7,1.4-1.4c0,0,0-0.1,0-0.1L37,4.2C37,3.5,36.4,3.1,35.6,3.1z"/>
		<path class="st6" d="M35.1,3.8H8.7c-0.7,0-1,0.3-1.2,1.1L4.9,26.2c0,0-0.1,0.8-0.1,0.9c-0.1,0.8,0.6,1.2,1.3,1.2h31.7 c0.8,0,1.4-0.6,1.3-1.2c0,0,0-0.3,0-0.3L36.3,4.8C36.2,4.1,35.8,3.8,35.1,3.8z"/>
		<path class="st7" d="M33.6,37.5c0.5,0,1,0.3,1,0.8s-0.4,0.8-1,0.8c-0.5,0-1-0.3-1-0.8C32.6,37.8,33.1,37.5,33.6,37.5z"/>
		<path class="st8" d="M33.6,37.4c0.5,0,0.9,0.3,0.9,0.7c0,0.4-0.4,0.7-0.9,0.7c-0.5,0-0.9-0.3-0.9-0.7C32.7,37.8,33.1,37.4,33.6,37.4 z"/>
		<path class="st9" d="M34.2,38c0,0.3-0.3,0.6-0.6,0.6c-0.3,0-0.6-0.3-0.6-0.6c0-0.3,0.3-0.5,0.6-0.5S34.2,37.7,34.2,38z"/>
		<path class="st10" d="M32.5,17.8c0.5,2.3-1.1,4.4-3.6,4.4H15.9c-3,0-4.8-2.4-4.2-5.1c0.4-1.8,1.8-3.2,3.4-3.8c0-0.1,0-0.3,0-0.4 c0.4-2.3,2.7-3.9,5.2-3.9c1.9,0,3.6,0.9,4.4,2.3c0.4-0.3,0.9-0.5,1.5-0.5c1.3,0,2.5,0.9,2.7,2.1c0.1,0.4,0,0.8-0.2,1.2 C30.5,14.5,32.1,16,32.5,17.8z"/>
	</svg>

</svg>
