<svg xmlns="http://www.w3.org/2000/svg" width="0" height="0">
	<svg id="preferences-icon-chevron-left" viewBox="0 0 240 240">
		<polyline fill="none" stroke="var(--color-1)" stroke-width="32" stroke-linecap="round" stroke-linejoin="round" points="165,28.75 74,119.75 165.75,211"/>
	</svg>

	<svg id="preferences-icon-chevron-right" viewBox="0 0 240 240">
		<polyline fill="none" stroke="var(--color-1)" stroke-width="32" stroke-linecap="round" stroke-linejoin="round" points="74,211.25 165,120.25 74.25,28"/>
	</svg>

	<svg id="preferences-icon-show-all" viewBox="0 0 240 240">
		<rect fill="var(--color-1)" y="40" width="40" height="40"/>
		<rect fill="var(--color-1)" x="60" y="40" width="40" height="40"/>
		<rect fill="var(--color-1)" x="120" y="40" width="40" height="40"/>
		<rect fill="var(--color-1)" x="180" y="40" width="40" height="40"/>
		<rect fill="var(--color-1)" y="100" width="40" height="40"/>
		<rect fill="var(--color-1)" x="60" y="100" width="40" height="40"/>
		<rect fill="var(--color-1)" x="120" y="100" width="40" height="40"/>
		<rect fill="var(--color-1)" x="180" y="100" width="40" height="40"/>
		<rect fill="var(--color-1)" y="160" width="40" height="40"/>
		<rect fill="var(--color-1)" x="60" y="160" width="40" height="40"/>
		<rect fill="var(--color-1)" x="120" y="160" width="40" height="40"/>
		<rect fill="var(--color-1)" x="180" y="160" width="40" height="40"/>
	</svg>

	<svg id="defiant-cloud-storage" viewBox="0 0 500 500">
		<style type="text/css">
			.st0{fill:url(#SVGID_1_);}
			.st1{fill:url(#SVGID_2_);}
			.st2{fill:url(#SVGID_3_);}
			.st3{fill:url(#SVGID_4_);}
			.st4{fill:url(#SVGID_5_);}
			.st5{fill:url(#SVGID_6_);}
			.st6{fill:url(#SVGID_7_);}
			.st7{fill:url(#SVGID_8_);}
			.st8{fill:url(#SVGID_9_);}
			.st9{fill:url(#SVGID_10_);}
			.st10{fill:url(#SVGID_11_);}
		</style>
		<linearGradient id="SVGID_1_" gradientUnits="userSpaceOnUse" x1="38.133" y1="-112.6743" x2="462.7442" y2="-112.6743" gradientTransform="matrix(1 0 0 1 0 376)">
			<stop  offset="0" style="stop-color:#B5B7B7"/>
			<stop  offset="1" style="stop-color:#A2A5A6"/>
		</linearGradient>
		<linearGradient id="SVGID_2_" gradientUnits="userSpaceOnUse" x1="38.2368" y1="58.9966" x2="462.7641" y2="58.9966" gradientTransform="matrix(1 0 0 1 0 376)">
			<stop  offset="0" style="stop-color:#B5B7B7"/>
			<stop  offset="4.065678e-02" style="stop-color:#A1A7A8"/>
			<stop  offset="0.1773" style="stop-color:#D7DFE2"/>
			<stop  offset="0.4362" style="stop-color:#C6CACB"/>
			<stop  offset="0.6479" style="stop-color:#DDE3E6"/>
			<stop  offset="0.9623" style="stop-color:#A5ACAF"/>
			<stop  offset="1" style="stop-color:#8F9597"/>
		</linearGradient>
		<linearGradient id="SVGID_3_" gradientUnits="userSpaceOnUse" x1="449.2244" y1="96.6976" x2="449.2244" y2="26.931" gradientTransform="matrix(1 0 0 1 0 376)">
			<stop  offset="0" style="stop-color:#C5C9CB"/>
			<stop  offset="1" style="stop-color:#9FA6A9"/>
		</linearGradient>
		<linearGradient id="SVGID_4_" gradientUnits="userSpaceOnUse" x1="50.4577" y1="96.6976" x2="50.4577" y2="26.931" gradientTransform="matrix(1 0 0 1 0 376)">
			<stop  offset="0" style="stop-color:#C5C9CB"/>
			<stop  offset="1" style="stop-color:#B8BDC0;stop-opacity:0.3"/>
		</linearGradient>
		<linearGradient id="SVGID_5_" gradientUnits="userSpaceOnUse" x1="38.1532" y1="-145.2727" x2="462.6459" y2="-145.2727" gradientTransform="matrix(1 0 0 1 0 376)">
			<stop  offset="0" style="stop-color:#DBE7EA"/>
			<stop  offset="0.5044" style="stop-color:#D2D9DC"/>
			<stop  offset="1" style="stop-color:#E6EEF0"/>
		</linearGradient>
		<linearGradient id="SVGID_6_" gradientUnits="userSpaceOnUse" x1="250.3996" y1="-324.8264" x2="250.3996" y2="29.2874" gradientTransform="matrix(1 0 0 1 0 376)">
			<stop  offset="0" style="stop-color:#C8C8C8"/>
			<stop  offset="1" style="stop-color:#A1A2A2"/>
		</linearGradient>
		<linearGradient id="SVGID_7_" gradientUnits="userSpaceOnUse" x1="250.0532" y1="-316.9999" x2="250.0532" y2="-42.3815" gradientTransform="matrix(1 0 0 1 0 376)">
			<stop  offset="0" style="stop-color:#FFC320"/>
			<stop  offset="1" style="stop-color:#FF9900"/>
		</linearGradient>
		<linearGradient id="SVGID_8_" gradientUnits="userSpaceOnUse" x1="369.4935" y1="69.1961" x2="391.2922" y2="69.1961" gradientTransform="matrix(1 0 0 1 0 376)">
			<stop  offset="0" style="stop-color:#DBE7EA"/>
			<stop  offset="0.5044" style="stop-color:#D2D9DC"/>
			<stop  offset="1" style="stop-color:#E6EEF0"/>
		</linearGradient>
		<radialGradient id="SVGID_9_" cx="380.3751" cy="67.5623" r="9.4781" gradientTransform="matrix(1 0 0 0.9815 0 377.8693)" gradientUnits="userSpaceOnUse">
			<stop  offset="4.082876e-04" style="stop-color:#879098"/>
			<stop  offset="0.5025" style="stop-color:#358936"/>
			<stop  offset="1" style="stop-color:#838B91"/>
		</radialGradient>
		<radialGradient id="SVGID_10_" cx="380.3431" cy="66.0741" r="6.6828" fx="380.3619" fy="67.7849" gradientTransform="matrix(1 0 0 0.9815 0 377.8693)" gradientUnits="userSpaceOnUse">
			<stop  offset="4.082876e-04" style="stop-color:#DFFFDC"/>
			<stop  offset="0.4827" style="stop-color:#8CFA80"/>
			<stop  offset="0.9197" style="stop-color:#4DCB40"/>
			<stop  offset="1" style="stop-color:#248920"/>
		</radialGradient>
		<linearGradient id="SVGID_11_" gradientUnits="userSpaceOnUse" x1="251.3676" y1="233.0932" x2="251.3676" y2="380.7971" gradientTransform="matrix(1 0 0 -1 0 499)">
			<stop  offset="0" style="stop-color:#E58F10"/>
			<stop  offset="1" style="stop-color:#D78700"/>
		</linearGradient>
		<g>
			<path class="st0" d="M462.7,394.8c0-0.2,0.1-0.5,0.1-0.7c0-0.5,0-1-0.1-1.5L419.3,64.7c-0.9-8-7.7-13.4-15.7-13.4H96.3 c-8,0-14.4,5-15.7,13.4l-42.3,328c0,0.5-0.1,1-0.1,1.5c0,0.2,0,0.5,0.1,0.7h-0.1c0,0.5,3.7,64.7,3.7,65.2 c0.2,7.9,7.6,15.2,15.9,15.2h384.4c8.2,0,15.7-7.3,15.9-15.2C458.1,459.6,462.8,395.3,462.7,394.8L462.7,394.8z"/>
		</g>
		<path class="st1" d="M38.2,394.8c0,0.5,3.7,64.7,3.7,65.2c0.2,7.9,7.6,15.2,15.9,15.2h384.4c8.2,0,15.7-7.3,15.9-15.2 c0-0.5,4.7-64.7,4.7-65.2"/>
		<path class="st2" d="M456.7,402.9c0.1,15-1.9,45.3-2.6,52.5c-0.9,8.8-3.8,13.8-12.5,17.3c7.8-7.4,8-16.4,8.4-22.6 c0.3-6.3,0.9-42.4,0.9-42.4L456.7,402.9z"/>
		<path class="st3" d="M42.9,402.9c-0.1,15,1.8,45.3,2.6,52.5c0.9,8.8,3.8,13.8,12.5,17.3c-7.8-7.4-8-16.4-8.3-22.6 c-0.3-6.3-0.9-42.4-0.9-42.4L42.9,402.9z"/>
		<path class="st4" d="M403.7,51.4H96.3c-8,0-14.4,5-15.7,13.4l-42.3,328c0,0.5-0.1,1-0.1,1.5c0.2,7.7,7.5,15.9,15.7,15.9h393.1 c8.1,0,15.5-8.2,15.7-15.9c0-0.5,0-1-0.1-1.5l-43.2-328C418.5,56.6,411.5,51.4,403.7,51.4z"/>
		<path class="st5" d="M403.3,51.2H96.7c-7.8,0-14.2,4.9-15.4,13.2L41.6,388.2c0,0.5-0.1,1-0.1,1.4c0.2,7.6,7.4,15.7,15.4,15.7H444 c8,0,15.2-8,15.4-15.7c0-0.5,0-1-0.1-1.5L418.8,64.3C417.9,56.4,411.2,51.2,403.3,51.2z"/>
		<path class="st6" d="M397.6,59H101.5c-7.6,0-11.7,3.8-13,11.8l-29.8,239c0,0.5-1.2,9.4-1.2,9.9c-0.8,8.6,7.1,13.9,14.8,13.9h355.4 c9.1,0,15.6-6.7,14.8-13.9c0-0.5-0.3-2.8-0.3-3.3L410.6,70.8C409.7,63.2,405.2,59,397.6,59z"/>
		<path class="st7" d="M380.3,436.7c6,0,10.9,3.8,11,8.5c0.1,4.7-4.7,8.6-10.7,8.6c-6,0-10.9-3.8-11-8.6 C369.5,440.5,374.3,436.7,380.3,436.7z"/>
		<path class="st8" d="M380.3,436c5.8,0,10.5,3.7,10.6,8.2c0.1,4.6-4.5,8.2-10.3,8.2s-10.5-3.7-10.6-8.2 C369.9,439.6,374.5,436,380.3,436z"/>
		<path class="st9" d="M387.2,442.4c0.1,3.7-2.9,6.8-6.8,6.8s-7-3-7-6.8c-0.1-3.8,2.9-6,6.8-6S387.1,438.6,387.2,442.4z"/>
		<path class="st10" d="M368.4,216.3c5.9,26.3-11.9,49.6-40.4,49.6H181.8c-33.2,0-54-27.1-47.2-57.1c4.4-19.7,19.9-35.6,38.2-42.6 c0.1-1.3,0.2-2.8,0.5-4.1c4.2-25.4,30.1-43.9,58.3-43.9c21.3,0,40,10.4,48.9,26.3c4.4-3.4,10.3-5.4,17-5.4c14.7,0,28.4,10.1,30.5,23 c0.8,4.9-0.1,9.5-2.4,13.4C345.6,179.6,363.6,195.6,368.4,216.3z"/>
	</svg>

	<svg id="icon-dropbox" viewBox="0 0 500 500">
		<style type="text/css">
			.st0{fill:#007ee5;}
		</style>
		<path class="st0" d="M124.3,198.1L250,275.7l-87,72.5L38.3,267.1L124.3,198.1z M375.2,339.4v27.5l-124.7,74.6v0.3l-0.3-0.3l-0.3,0.3 v-0.3l-124.4-74.6v-27.5l37.4,24.4l87-72.3V291l0.3,0.3l0.3-0.3v0.5l87.3,72.3L375.2,339.4z M163,48.3l87,72.5l-125.7,77.4l-86-68.7 L163,48.3z M375.7,198.1l86,69l-124.4,81.2L250,275.7L375.7,198.1z M337.3,48.3l124.4,81.2l-86,68.7L250,120.8L337.3,48.3z"/>
	</svg>

	<svg id="icon-one-drive" viewBox="0 0 500 500">
		<style type="text/css">
			.st0{fill:#1665c0;}
		</style>
		<path id="path4256" class="st0" d="M170.9,403.7c-27.2-8-42.4-33.2-42.4-70.8c0-12,0.7-17.7,3.3-25.5c6.3-18.9,22.9-33.2,44.8-38.4 c10.9-2.6,14.2-5.4,14.2-11.9c0-2,1.3-8.1,2.9-13.5c7.2-24.4,20.5-44.8,34.8-53.2c14.9-8.7,22.4-10.7,40.5-10.6 c25.6,0.2,38.4,6.7,56.2,28.6l9.8,12.1l8.8-3.6c42.6-17.2,85.1,12.1,88.5,61.1l0.9,13.4l8.4,3.5c24,10,35.2,31.1,33.2,62.1 c-1.3,20.3-9.4,36.4-22.3,44.4l-6,3.8l-134.1,0.3C209.3,405.7,176.6,405.3,170.9,403.7L170.9,403.7z"/>
		<path id="path4248" class="st0" d="M70.4,382c-15.9-4.4-32.7-20.8-40.6-39.6c-4.5-10.6-4.7-12.2-4.7-31c0-17.9,0.4-20.8,3.9-29.7 c7.5-18.7,21.9-32.3,40-37.6c3.8-1.1,7.4-2.9,8-4c0.6-1.1,1.2-6.9,1.4-12.9c1.3-37.5,22.3-70.6,51.7-81.2 c15.9-5.7,35.8-4.3,53.1,3.8c5.5,2.6,4.9,3.1,16.5-14.6c6.9-10.5,20.7-23.6,32-30.2c12.2-7.2,25-10.5,40.2-10.4 c42.5,0.1,79.2,31.2,92.7,78.6c4.3,15.2,4.1,19.4-1,19.5c-2.2,0.1-8.6,1.5-14.2,3.2l-10.1,3.1l-9.3-10.8 c-26.1-30.5-68.7-37.1-104.8-16.2c-14.5,8.3-26.1,20.3-34.9,35.9c-6.3,11.1-14.2,31.8-14.2,37c0,3.7-2.5,5.5-13.3,9.6 c-33.4,12.8-53,42.4-52.9,80.3c0,13.8,3,30.7,7.3,40.3c1.6,3.6,2.5,7.1,2,7.7C117.7,384.1,76.1,383.6,70.4,382L70.4,382z"/>
	</svg>

	<svg id="icon-google-drive" viewBox="0 0 500 500">
		<style type="text/css">
			.st0{fill:#fcc83d;}
			.st1{fill:#19994e;}
			.st2{fill:#336cf6;}
		</style>
		<path class="st0" d="M448.7,276.3L327.1,65.7h-152l121.6,210.6H448.7z"/>
		<path class="st1" d="M159.9,92.1L40.5,298.9l76,131.6l119.4-206.8L159.9,92.1z"/>
		<path class="st2" d="M220.7,302.6l-75.9,131.6h238.8l75.9-131.6H220.7z"/>
	</svg>

</svg>
